<svg xmlns="http://www.w3.org/2000/svg" xmlns:xlink="http://www.w3.org/1999/xlink" version="1.1" height="480" width="480" viewBox="24 12 66 66" xml:space="preserve">
  <rect fill="#ffffff" x="0" y="0" width="96" height="96"></rect>
    <g transform="translate(9,22)">
      <!--
        <g class="logo-text-dark" fill="#020202" alt="NORTH EAST">
            <polygon fill="#020202" points="2.84,21.44 4.208,21.44 4.208,12.973 3.021,12.973 3.021,18.033 1.678,12.973 0,12.973 0,21.44     1.188,21.44 1.188,15.296   "/>
        	<path fill="#020202" d="M7.763,19.484c0,0.603-0.266,0.833-0.688,0.833c-0.422,0-0.688-0.23-0.688-0.833V14.92     c0-0.604,0.266-0.833,0.688-0.833c0.423,0,0.688,0.232,0.697,0.833v4.564H7.763z M9.091,19.399v-4.394     c0-1.353-0.713-2.125-2.017-2.125c-1.304,0-2.016,0.772-2.016,2.125v4.394c0,1.342,0.722,2.117,2.013,2.125     s2.019-0.781,2.016-2.124"/>
			<path fill="#020202" d="M12.591,15.887c0,0.675-0.302,0.893-0.796,0.893h-0.52v-2.596h0.64c0.471,0,0.672,0.258,0.672,0.87v0.833     H12.591z M14.077,21.44c-0.133-0.314-0.146-0.616-0.146-1.026V19.11c0-0.881-0.218-1.521-0.881-1.798     c0.591-0.278,0.87-0.845,0.87-1.715v-0.664c0-1.304-0.592-1.943-1.969-1.943H9.947v8.438h1.328v-3.44h0.459     c0.604,0,0.878,0.284,0.878,1.074v1.328c0,0.698,0.051,0.827,0.129,1.039h1.335V21.44z"/>
            <polygon fill="#020202" points="14.406,14.186 15.773,14.186 15.773,21.44 17.117,21.44 17.117,14.186 18.51,14.186 18.51,12.973     14.406,12.973   "/>
            <polygon fill="#020202" points="20.37,17.8 21.867,17.8 21.867,21.44 23.209,21.44 23.209,12.973 21.867,12.973 21.867,16.587     20.37,16.587 20.37,12.973 19.027,12.973 19.027,21.44 20.37,21.44   "/>
            <polygon fill="#020202" points="27.392,14.186 29.689,14.186 29.689,12.973 26.049,12.973 26.049,21.44 29.689,21.44     29.689,20.227 27.392,20.227 27.392,17.749 29.198,17.749 29.198,16.536 27.392,16.536   "/>
            <path fill="#020202" d="M33.105,18.748h-1.28l0.64-4.274L33.105,18.748z M34.855,21.428l-1.353-8.451H31.56l-1.352,8.451h1.219    l0.229-1.533h1.63l0.229,1.533H34.855z"/>
            <path fill="#020202" d="M35.243,15.005c0,2.426,2.607,2.736,2.607,4.479c0,0.603-0.266,0.821-0.688,0.821     s-0.688-0.218-0.688-0.821V18.88h-1.255v0.519c0,1.343,0.671,2.117,1.988,2.125c1.303,0,1.979-0.772,1.979-2.125     c0-2.414-2.596-2.74-2.596-4.479c0-0.604,0.242-0.833,0.665-0.833s0.664,0.232,0.671,0.833v0.35h1.255v-0.266     c0-1.353-0.664-2.125-1.956-2.125c-1.319-0.011-1.986,0.763-1.986,2.131"/>
            <polygon fill="#020202" points="39.551,14.186 40.918,14.186 40.918,21.44 42.262,21.44 42.262,14.186 43.656,14.186     43.656,12.973 39.551,12.973   "/>
        </g>
		<g class="logo-text-dark" fill="#020202" alt="SCOTLAND">
            <path fill="#020202" d="M0.036,26.124c0,2.428,2.607,2.737,2.607,4.479c0,0.604-0.266,0.821-0.688,0.821     c-0.422,0-0.688-0.217-0.688-0.821V30H0v0.52c0,1.343,0.671,2.116,1.988,2.124c1.303,0,1.979-0.772,1.979-2.124     c0-2.415-2.596-2.741-2.596-4.479c0-0.603,0.242-0.833,0.664-0.833s0.671,0.232,0.671,0.833v0.35h1.256v-0.266     c0-1.353-0.664-2.125-1.956-2.125c-1.292,0-1.971,0.771-1.982,2.114"/>
            <path fill="#020202" d="M7.316,29.396v1.208c0,0.604-0.266,0.821-0.688,0.821s-0.688-0.217-0.688-0.821V26.04     c0-0.603,0.266-0.833,0.688-0.833s0.688,0.232,0.697,0.833v0.906h1.256v-0.822c0-1.353-0.676-2.125-1.98-2.125     s-1.979,0.772-1.979,2.125v4.396c0,1.342,0.671,2.115,1.988,2.124c1.304,0,1.979-0.772,1.979-2.124v-1.124H7.316L7.316,29.396z"/>
			<path fill="#020202" d="M11.976,30.604c0,0.604-0.266,0.833-0.688,0.833c-0.422,0-0.688-0.229-0.688-0.833V26.04     c0-0.603,0.266-0.833,0.688-0.833c0.422,0,0.697,0.232,0.697,0.833v4.563H11.976z M13.304,30.52v-4.396     c0-1.353-0.713-2.125-2.017-2.125s-2.016,0.772-2.016,2.125v4.396c0,1.342,0.723,2.115,2.014,2.124     c1.291,0.008,2.019-0.773,2.011-2.116"/>
            <polygon fill="#020202" points="13.734,25.313 15.128,25.313 15.128,32.542 16.445,32.542 16.445,25.313 17.839,25.313     17.839,24.1 13.734,24.1   "/>
            <polygon fill="#020202" points="18.407,32.542 21.918,32.542 21.918,31.328 19.724,31.328 19.724,24.1 18.407,24.1   "/>
            <path fill="#020202" d="M25.277,29.867h-1.28l0.64-4.274L25.277,29.867z M27.027,32.547l-1.352-8.45h-1.943l-1.353,8.45h1.22    l0.229-1.533h1.629l0.23,1.533H27.027z"/>
            <polygon fill="#020202" points="30.489,32.542 31.858,32.542 31.858,24.1 30.67,24.1 30.67,29.16 29.302,24.1 27.649,24.1     27.649,32.542 28.837,32.542 28.837,26.423   "/>
            <path fill="#020202" d="M35.454,30.52c0,0.604-0.253,0.819-0.676,0.819h-0.748v-6.036h0.748c0.422,0,0.671,0.207,0.671,0.821     v4.396H35.454z M36.782,30.459v-4.273c0-1.354-0.652-2.089-1.98-2.089h-2.101v8.451h2.101c1.328-0.006,1.986-0.729,1.986-2.098"/>
        </g>
		<g class="logo-text-light" fill="#C8C7C7" alt="COLLEGE">
			<path d="M2.705,40.616v1.207c0,0.604-0.266,0.821-0.688,0.821c-0.423,0-0.688-0.218-0.688-0.821V37.26     c0-0.603,0.266-0.833,0.688-0.833c0.422,0,0.688,0.233,0.697,0.833v0.905h1.256v-0.821c0-1.352-0.676-2.124-1.979-2.124     c-1.305,0-1.98,0.772-1.98,2.124v4.396c0,1.342,0.671,2.116,1.987,2.124c1.305,0,1.98-0.772,1.98-2.124v-1.123H2.705     L2.705,40.616z"/>
			<path d="M7.304,41.823c0,0.603-0.266,0.833-0.688,0.833c-0.423,0-0.688-0.23-0.688-0.833V37.26     c0-0.604,0.265-0.833,0.688-0.833c0.422,0,0.697,0.232,0.697,0.833v4.563H7.304z M8.631,41.739v-4.396     c0-1.352-0.713-2.124-2.016-2.124c-1.304,0-2.016,0.772-2.016,2.124v4.396c0,1.342,0.723,2.116,2.014,2.124     c1.291,0.009,2.019-0.762,2.01-2.132"/>
            <polygon points="9.423,43.771 12.934,43.771 12.934,42.559 10.765,42.559 10.765,35.304 9.423,35.304   "/>
            <polygon points="13.528,43.771 17.039,43.771 17.039,42.559 14.845,42.559 14.845,35.304 13.528,35.304   "/>
            <polygon points="18.95,36.519 21.221,36.519 21.221,35.304 17.607,35.304 17.607,43.771 21.221,43.771     21.221,42.559 18.95,42.559 18.95,40.08 20.756,40.08 20.756,38.867 18.95,38.867   "/>
            <path d="M24.047,40.268h0.603v1.556c0,0.604-0.266,0.821-0.688,0.821c-0.423,0-0.688-0.218-0.688-0.821V37.26     c0-0.604,0.266-0.833,0.688-0.833c0.422,0,0.688,0.232,0.696,0.833v0.905h1.255v-0.821c0-1.352-0.676-2.124-1.979-2.124     s-1.979,0.772-1.979,2.124v4.396c0,1.342,0.671,2.116,1.988,2.123c1.304,0,1.979-0.771,1.979-2.123v-2.682h-1.859v1.21H24.047z"/>
            <polygon points="28.088,36.519 30.386,36.519 30.386,35.304 26.772,35.304 26.772,43.771 30.386,43.771     30.386,42.559 28.088,42.559 28.088,40.08 29.921,40.08 29.921,38.867 28.088,38.867   "/>
        </g>
        //-->
		<g class="logo-branding-shadow" fill="#C8C7C7">
			<path d="M55.164,14.593c0,0,0.792-2.44,0.296-3.387c-0.51-1.43-2.593-2.026-2.593-2.026L23.551,0.813     c0,0,47.27,2.04,49.981,2.202c2.728,0.155,3.46,1.885,3.46,1.888c0,0.001,1.025,1.859,0,3.691     c-1.225,2.182-23.321,32.911-25.046,35.314c-2.271,2.895-6.859-0.458-5.487-4.09"/>
        </g>
        <g class="logo-branding-purple" fill="#954C97">
			<path d="M50.515,14.397c0,0,0.792-2.439,0.297-3.387c-0.509-1.43-2.594-2.026-2.594-2.026L18.903,0.606     c0,0,47.27,2.04,49.982,2.202c2.726,0.154,3.458,1.884,3.458,1.886s1.025,1.859,0,3.692c-1.224,2.182-23.32,32.911-25.044,35.313     c-2.272,2.896-6.86-0.457-5.488-4.088"/>
        </g>
        <g class="logo-branding-overlap" fill="#623C7C">
			<path d="M72.359,8.389c1.025-1.829,0-3.7,0-3.7s-0.722-1.73-3.449-1.888c-2.197-0.13-33.334-1.472-45.314-1.999     L52.89,9.174c0,0,2.091,0.594,2.582,2.025c0.494,0.948-0.299,3.387-0.299,3.383l-8.7,25.223c-0.57,1.51-0.109,2.969,0.773,3.954     c0.019-0.021,0.037-0.039,0.055-0.062c1.737-2.406,23.824-33.126,25.063-35.32"/>
		</g>
    </g>
</svg>
